<svg width="131" height="50" viewBox="0 0 131 50" fill="none" xmlns="http://www.w3.org/2000/svg">
<path d="M76.7045 36H70.517V18.5455H76.7557C78.5114 18.5455 80.0227 18.8949 81.2898 19.5938C82.5568 20.2869 83.5313 21.2841 84.2131 22.5852C84.9006 23.8864 85.2443 25.4432 85.2443 27.2557C85.2443 29.0739 84.9006 30.6364 84.2131 31.9432C83.5313 33.25 82.5511 34.2528 81.2727 34.9517C80 35.6506 78.4773 36 76.7045 36ZM74.2074 32.8381H76.5511C77.642 32.8381 78.5597 32.6449 79.304 32.2585C80.054 31.8665 80.6165 31.2614 80.9915 30.4432C81.3722 29.6193 81.5625 28.5568 81.5625 27.2557C81.5625 25.9659 81.3722 24.9119 80.9915 24.0938C80.6165 23.2756 80.0568 22.6733 79.3125 22.2869C78.5682 21.9006 77.6506 21.7074 76.5597 21.7074H74.2074V32.8381ZM93.8757 36.2557C92.5291 36.2557 91.37 35.983 90.3984 35.4375C89.4325 34.8864 88.6882 34.108 88.1655 33.1023C87.6428 32.0909 87.3814 30.8949 87.3814 29.5142C87.3814 28.1676 87.6428 26.9858 88.1655 25.9688C88.6882 24.9517 89.424 24.1591 90.3729 23.5909C91.3274 23.0227 92.4467 22.7386 93.7308 22.7386C94.5945 22.7386 95.3984 22.8778 96.1428 23.1562C96.8928 23.429 97.5462 23.8409 98.103 24.392C98.6655 24.9432 99.103 25.6364 99.4155 26.4716C99.728 27.3011 99.8842 28.2727 99.8842 29.3864V30.3835H88.8303V28.1335H96.4666C96.4666 27.6108 96.353 27.1477 96.1257 26.7443C95.8984 26.3409 95.5831 26.0256 95.1797 25.7983C94.782 25.5653 94.3189 25.4489 93.7905 25.4489C93.2393 25.4489 92.7507 25.5767 92.3246 25.8324C91.9041 26.0824 91.5746 26.4205 91.3359 26.8466C91.0973 27.267 90.9751 27.7358 90.9695 28.2528V30.392C90.9695 31.0398 91.0888 31.5994 91.3274 32.071C91.5717 32.5426 91.9155 32.9062 92.3587 33.1619C92.8018 33.4176 93.3274 33.5455 93.9354 33.5455C94.3388 33.5455 94.7081 33.4886 95.0433 33.375C95.3786 33.2614 95.6655 33.0909 95.9041 32.8636C96.1428 32.6364 96.3246 32.358 96.4496 32.0284L99.8075 32.25C99.6371 33.0568 99.2876 33.7614 98.7592 34.3636C98.2365 34.9602 97.5604 35.4261 96.7308 35.7614C95.907 36.0909 94.9553 36.2557 93.8757 36.2557ZM92.3416 21.2216L94.1484 17.3438H97.5064L94.907 21.2216H92.3416ZM109.293 22.9091V25.6364H101.214V22.9091H109.293ZM103.063 36V21.9631C103.063 21.0142 103.248 20.2273 103.617 19.6023C103.992 18.9773 104.504 18.5085 105.151 18.196C105.799 17.8835 106.535 17.7273 107.359 17.7273C107.915 17.7273 108.424 17.7699 108.884 17.8551C109.35 17.9403 109.697 18.017 109.924 18.0852L109.276 20.8125C109.134 20.767 108.958 20.7244 108.748 20.6847C108.543 20.6449 108.333 20.625 108.117 20.625C107.583 20.625 107.211 20.75 107.001 21C106.79 21.2443 106.685 21.5881 106.685 22.0312V36H103.063ZM111.511 36V22.9091H115.142V36H111.511ZM113.335 21.2216C112.795 21.2216 112.332 21.0426 111.946 20.6847C111.565 20.321 111.375 19.8864 111.375 19.3807C111.375 18.8807 111.565 18.4517 111.946 18.0938C112.332 17.7301 112.795 17.5483 113.335 17.5483C113.875 17.5483 114.335 17.7301 114.716 18.0938C115.102 18.4517 115.295 18.8807 115.295 19.3807C115.295 19.8864 115.102 20.321 114.716 20.6847C114.335 21.0426 113.875 21.2216 113.335 21.2216ZM128.942 26.642L125.619 26.8466C125.562 26.5625 125.44 26.3068 125.252 26.0795C125.065 25.8466 124.817 25.6619 124.511 25.5256C124.21 25.3835 123.849 25.3125 123.428 25.3125C122.866 25.3125 122.391 25.4318 122.005 25.6705C121.619 25.9034 121.425 26.2159 121.425 26.608C121.425 26.9205 121.55 27.1847 121.8 27.4006C122.05 27.6165 122.479 27.7898 123.087 27.9205L125.457 28.3977C126.729 28.6591 127.678 29.0795 128.303 29.6591C128.928 30.2386 129.241 31 129.241 31.9432C129.241 32.8011 128.988 33.554 128.482 34.2017C127.982 34.8494 127.295 35.3551 126.42 35.7188C125.55 36.0767 124.548 36.2557 123.411 36.2557C121.678 36.2557 120.298 35.8949 119.269 35.1733C118.246 34.446 117.647 33.4574 117.471 32.2074L121.042 32.0199C121.15 32.5483 121.411 32.9517 121.826 33.2301C122.241 33.5028 122.772 33.6392 123.42 33.6392C124.056 33.6392 124.567 33.517 124.954 33.2727C125.346 33.0227 125.545 32.7017 125.55 32.3097C125.545 31.9801 125.406 31.7102 125.133 31.5C124.86 31.2841 124.44 31.1193 123.871 31.0057L121.604 30.554C120.326 30.2983 119.374 29.8551 118.749 29.2244C118.13 28.5937 117.82 27.7898 117.82 26.8125C117.82 25.9716 118.048 25.2472 118.502 24.6392C118.962 24.0312 119.607 23.5625 120.437 23.233C121.272 22.9034 122.249 22.7386 123.369 22.7386C125.022 22.7386 126.323 23.0881 127.272 23.7869C128.227 24.4858 128.783 25.4375 128.942 26.642Z" fill="#8000FF"/>
<path d="M36.5833 43.75C36.2502 43.7513 35.9215 43.6727 35.625 43.5208L25 37.9583L14.375 43.5208C14.03 43.7022 13.641 43.7832 13.2522 43.7546C12.8635 43.7259 12.4906 43.5888 12.1759 43.3587C11.8612 43.1287 11.6174 42.815 11.4721 42.4532C11.3268 42.0915 11.286 41.6963 11.3542 41.3125L13.4375 29.5833L4.85416 21.25C4.58636 20.9827 4.39639 20.6476 4.30463 20.2806C4.21288 19.9136 4.2228 19.5285 4.33333 19.1666C4.45408 18.7964 4.67619 18.4674 4.97447 18.217C5.27275 17.9666 5.63525 17.8048 6.02083 17.75L17.8958 16.0208L23.125 5.33331C23.2956 4.98108 23.5619 4.68402 23.8936 4.47617C24.2252 4.26832 24.6086 4.15808 25 4.15808C25.3914 4.15808 25.7748 4.26832 26.1064 4.47617C26.438 4.68402 26.7044 4.98108 26.875 5.33331L32.1667 16L44.0417 17.7291C44.4272 17.7839 44.7897 17.9457 45.088 18.1961C45.3863 18.4465 45.6084 18.7755 45.7292 19.1458C45.8397 19.5076 45.8496 19.8927 45.7579 20.2598C45.6661 20.6268 45.4761 20.9619 45.2083 21.2291L36.625 29.5625L38.7083 41.2916C38.7827 41.6822 38.7438 42.0859 38.5961 42.4551C38.4484 42.8242 38.1982 43.1434 37.875 43.375C37.4977 43.6393 37.0435 43.7712 36.5833 43.75Z" fill="#8000FF"/>
</svg>
