<svg width="227" height="196" viewBox="0 0 227 196" fill="none" xmlns="http://www.w3.org/2000/svg">
<path d="M147.74 30.8868L142 36.627L136.259 30.8864C128.483 23.1097 117.935 18.7408 106.937 18.7408C95.9396 18.7408 85.3922 23.1097 77.6155 30.8864C69.8389 38.6631 65.47 49.2105 65.47 60.2083C65.47 71.2062 69.8389 81.7536 77.6155 89.5303L85.1238 97.0386L140.232 152.147C141.208 153.123 142.791 153.123 143.768 152.147L198.876 97.0386L206.384 89.5307C206.384 89.5305 206.384 89.5304 206.384 89.5303C210.236 85.6803 213.291 81.1093 215.376 76.0782C217.461 71.047 218.534 65.6543 218.534 60.2083C218.534 54.7623 217.461 49.3696 215.376 44.3384C213.291 39.3072 210.236 34.736 206.384 30.886C202.534 27.0345 197.963 23.9793 192.932 21.8948C187.901 19.8101 182.508 18.7371 177.062 18.7371C171.616 18.7371 166.224 19.8101 161.193 21.8947C156.161 23.9794 151.59 27.0348 147.741 30.8864C147.74 30.8865 147.74 30.8867 147.74 30.8868Z" fill="white" stroke="#8000FF" stroke-width="5" stroke-linecap="round" stroke-linejoin="round"/>
<path d="M204.617 32.6542C200.999 29.0346 196.703 26.1633 191.975 24.2043C187.248 22.2454 182.18 21.2371 177.062 21.2371C171.945 21.2371 166.877 22.2454 162.15 24.2043C157.422 26.1633 153.126 29.0346 149.508 32.6542L142 40.1625L110 41.5C110 41.5 143 42.4581 142 40.1625C131.665 40.1625 142 40.1625 79.3833 32.6542C72.0755 39.962 67.97 49.8735 67.97 60.2083C67.97 70.5431 72.0755 80.4547 79.3833 87.7625L86.8916 95.2708L142 150.379L197.108 95.2708L204.617 87.7625C208.236 84.1446 211.107 79.8491 213.066 75.1213C215.025 70.3934 216.034 65.3259 216.034 60.2083C216.034 55.0907 215.025 50.0232 213.066 45.2954C211.107 40.5676 208.236 36.272 204.617 32.6542Z" fill="#8000FF"/>
<path d="M36.1001 135.511C37.7952 135.511 39.4003 135.781 40.9155 136.321C42.4306 136.851 43.7706 137.689 44.9354 138.835C46.1096 139.981 47.0282 141.477 47.6911 143.324C48.3634 145.161 48.7043 147.386 48.7138 150C48.7232 152.386 48.425 154.531 47.8189 156.435C47.2223 158.329 46.3653 159.943 45.2479 161.278C44.1399 162.614 42.8047 163.636 41.2422 164.347C39.6892 165.047 37.9562 165.398 36.0433 165.398C33.8937 165.398 32.0045 164.986 30.3757 164.162C28.7469 163.338 27.4496 162.23 26.4837 160.838C25.5178 159.446 24.9543 157.898 24.7933 156.193H32.5774C32.7668 157.074 33.1835 157.713 33.8274 158.111C34.4714 158.499 35.21 158.693 36.0433 158.693C37.71 158.693 38.9268 157.973 39.6939 156.534C40.4704 155.085 40.8634 153.153 40.8729 150.739H40.7024C40.3331 151.629 39.7744 152.391 39.0263 153.026C38.2782 153.66 37.407 154.148 36.4126 154.489C35.4183 154.83 34.3672 155 33.2592 155C31.5073 155 29.9732 154.607 28.657 153.821C27.3407 153.026 26.3132 151.941 25.5746 150.568C24.8359 149.186 24.4619 147.614 24.4524 145.852C24.4429 143.788 24.9306 141.979 25.9155 140.426C26.9003 138.873 28.2687 137.666 30.0206 136.804C31.7725 135.942 33.799 135.511 36.1001 135.511ZM36.157 141.477C35.371 141.477 34.6702 141.657 34.0547 142.017C33.4486 142.377 32.9704 142.865 32.62 143.48C32.2791 144.096 32.1134 144.792 32.1229 145.568C32.1323 146.345 32.3075 147.041 32.6484 147.656C32.9988 148.272 33.4723 148.759 34.0689 149.119C34.675 149.479 35.371 149.659 36.157 149.659C36.7346 149.659 37.2696 149.56 37.7621 149.361C38.2545 149.152 38.6806 148.864 39.0405 148.494C39.4098 148.116 39.6939 147.68 39.8928 147.188C40.1011 146.686 40.2005 146.146 40.1911 145.568C40.1816 144.792 40.0017 144.096 39.6513 143.48C39.3009 142.865 38.8227 142.377 38.2166 142.017C37.6106 141.657 36.924 141.477 36.157 141.477ZM64.2784 165.398C62.5833 165.398 60.9735 165.133 59.4489 164.602C57.9337 164.062 56.589 163.215 55.4148 162.06C54.2405 160.904 53.3172 159.399 52.6449 157.543C51.982 155.687 51.6553 153.437 51.6648 150.795C51.6742 148.437 51.9773 146.316 52.5739 144.432C53.1799 142.547 54.0369 140.942 55.1449 139.616C56.2623 138.291 57.5975 137.277 59.1506 136.577C60.7036 135.866 62.4318 135.511 64.3352 135.511C66.4754 135.511 68.3598 135.923 69.9886 136.747C71.6174 137.571 72.9148 138.674 73.8807 140.057C74.8561 141.43 75.4242 142.945 75.5852 144.602H67.8011C67.6212 143.778 67.2045 143.177 66.5511 142.798C65.9072 142.41 65.1686 142.216 64.3352 142.216C62.678 142.216 61.4612 142.936 60.6847 144.375C59.9176 145.814 59.5246 147.708 59.5057 150.057H59.6761C60.0455 149.167 60.6042 148.404 61.3523 147.77C62.1004 147.135 62.9716 146.648 63.9659 146.307C64.9602 145.966 66.0114 145.795 67.1193 145.795C68.8807 145.795 70.4195 146.193 71.7358 146.989C73.0616 147.784 74.0938 148.873 74.8324 150.256C75.571 151.638 75.9356 153.22 75.9261 155C75.9356 157.083 75.4432 158.906 74.4489 160.469C73.464 162.031 72.0956 163.243 70.3438 164.105C68.5919 164.967 66.5701 165.398 64.2784 165.398ZM64.2216 159.432C65.0076 159.432 65.7036 159.252 66.3097 158.892C66.9252 158.532 67.4034 158.04 67.7443 157.415C68.0947 156.79 68.2652 156.08 68.2557 155.284C68.2652 154.479 68.0947 153.769 67.7443 153.153C67.4034 152.528 66.9252 152.036 66.3097 151.676C65.7036 151.316 65.0076 151.136 64.2216 151.136C63.6439 151.136 63.1089 151.241 62.6165 151.449C62.1335 151.648 61.7121 151.937 61.3523 152.315C60.9924 152.685 60.7083 153.125 60.5 153.636C60.3011 154.138 60.197 154.687 60.1875 155.284C60.197 156.08 60.3769 156.79 60.7273 157.415C61.0777 158.04 61.5559 158.532 62.1619 158.892C62.768 159.252 63.4545 159.432 64.2216 159.432ZM96.1499 159.545V158.011C96.1499 156.78 96.415 155.644 96.9453 154.602C97.4851 153.561 98.2663 152.723 99.2891 152.088C100.312 151.454 101.557 151.136 103.025 151.136C104.531 151.136 105.795 151.449 106.817 152.074C107.85 152.699 108.631 153.532 109.161 154.574C109.692 155.616 109.957 156.761 109.957 158.011V159.545C109.957 160.777 109.687 161.913 109.147 162.955C108.617 163.996 107.835 164.834 106.803 165.469C105.771 166.103 104.512 166.42 103.025 166.42C101.538 166.42 100.283 166.103 99.2607 165.469C98.2379 164.834 97.4614 163.996 96.9311 162.955C96.4103 161.913 96.1499 160.777 96.1499 159.545ZM101.093 158.011V159.545C101.093 160.085 101.226 160.62 101.491 161.151C101.765 161.671 102.277 161.932 103.025 161.932C103.811 161.932 104.327 161.676 104.573 161.165C104.829 160.653 104.957 160.114 104.957 159.545V158.011C104.957 157.443 104.838 156.894 104.602 156.364C104.365 155.833 103.839 155.568 103.025 155.568C102.277 155.568 101.765 155.833 101.491 156.364C101.226 156.894 101.093 157.443 101.093 158.011ZM80.9226 142.898V141.364C80.9226 140.114 81.1925 138.968 81.7322 137.926C82.2815 136.884 83.0675 136.051 84.0902 135.426C85.1129 134.801 86.3487 134.489 87.7976 134.489C89.3033 134.489 90.5675 134.801 91.5902 135.426C92.6224 136.051 93.4036 136.884 93.9339 137.926C94.4643 138.968 94.7294 140.114 94.7294 141.364V142.898C94.7294 144.148 94.4595 145.289 93.9197 146.321C93.3894 147.353 92.6082 148.177 91.576 148.793C90.5438 149.408 89.2843 149.716 87.7976 149.716C86.3108 149.716 85.0561 149.403 84.0334 148.778C83.0107 148.153 82.2341 147.325 81.7038 146.293C81.183 145.26 80.9226 144.129 80.9226 142.898ZM85.9226 141.364V142.898C85.9226 143.466 86.0552 144.006 86.3203 144.517C86.5855 145.028 87.0779 145.284 87.7976 145.284C88.5836 145.284 89.0997 145.028 89.3459 144.517C89.6016 144.006 89.7294 143.466 89.7294 142.898V141.364C89.7294 140.795 89.611 140.246 89.3743 139.716C89.1375 139.186 88.612 138.92 87.7976 138.92C87.0495 138.92 86.5476 139.195 86.2919 139.744C86.0457 140.284 85.9226 140.824 85.9226 141.364ZM83.3374 165L103.337 135.909H107.371L87.3714 165H83.3374Z" fill="#2C0158"/>
</svg>
