<svg width="162" height="50" viewBox="0 0 162 50" fill="none" xmlns="http://www.w3.org/2000/svg">
<path d="M69.517 30V12.5455H81.0739V15.5881H73.2074V19.7472H80.3068V22.7898H73.2074V30H69.517ZM87.0568 30.2472C86.2216 30.2472 85.4773 30.1023 84.8239 29.8125C84.1705 29.517 83.6534 29.0824 83.2727 28.5085C82.8977 27.929 82.7102 27.2074 82.7102 26.3438C82.7102 25.6165 82.8438 25.0057 83.1108 24.5114C83.3778 24.017 83.7415 23.6193 84.2017 23.3182C84.6619 23.017 85.1847 22.7898 85.7699 22.6364C86.3608 22.483 86.9801 22.375 87.6278 22.3125C88.3892 22.233 89.0028 22.1591 89.4688 22.0909C89.9347 22.017 90.2727 21.9091 90.483 21.767C90.6932 21.625 90.7983 21.4148 90.7983 21.1364V21.0852C90.7983 20.5455 90.6278 20.1278 90.2869 19.8324C89.9517 19.5369 89.4744 19.3892 88.8551 19.3892C88.2017 19.3892 87.6818 19.5341 87.2955 19.8239C86.9091 20.108 86.6534 20.4659 86.5284 20.8977L83.1705 20.625C83.3409 19.8295 83.6761 19.142 84.1761 18.5625C84.6761 17.9773 85.321 17.5284 86.1108 17.2159C86.9063 16.8977 87.8267 16.7386 88.8722 16.7386C89.5994 16.7386 90.2955 16.8239 90.9602 16.9943C91.6307 17.1648 92.2244 17.429 92.7415 17.7869C93.2642 18.1449 93.6761 18.6051 93.9773 19.1676C94.2784 19.7244 94.429 20.392 94.429 21.1705V30H90.9858V28.1847H90.8835C90.6733 28.5938 90.392 28.9545 90.0398 29.267C89.6875 29.5739 89.2642 29.8153 88.7699 29.9915C88.2756 30.1619 87.7045 30.2472 87.0568 30.2472ZM88.0966 27.7415C88.6307 27.7415 89.1023 27.6364 89.5114 27.4261C89.9205 27.2102 90.2415 26.9205 90.4744 26.5568C90.7074 26.1932 90.8239 25.7812 90.8239 25.321V23.9318C90.7102 24.0057 90.554 24.0739 90.3551 24.1364C90.1619 24.1932 89.9432 24.2472 89.6989 24.2983C89.4545 24.3437 89.2102 24.3864 88.9659 24.4261C88.7216 24.4602 88.5 24.4915 88.3011 24.5199C87.875 24.5824 87.5028 24.6818 87.1847 24.8182C86.8665 24.9545 86.6193 25.1392 86.4432 25.3722C86.267 25.5994 86.179 25.8835 86.179 26.2244C86.179 26.7188 86.358 27.0966 86.7159 27.358C87.0795 27.6136 87.5398 27.7415 88.0966 27.7415ZM97.2457 30V16.9091H100.876V30H97.2457ZM99.0696 15.2216C98.5298 15.2216 98.0668 15.0426 97.6804 14.6847C97.2997 14.321 97.1094 13.8864 97.1094 13.3807C97.1094 12.8807 97.2997 12.4517 97.6804 12.0938C98.0668 11.7301 98.5298 11.5483 99.0696 11.5483C99.6094 11.5483 100.07 11.7301 100.45 12.0938C100.837 12.4517 101.03 12.8807 101.03 13.3807C101.03 13.8864 100.837 14.321 100.45 14.6847C100.07 15.0426 99.6094 15.2216 99.0696 15.2216ZM103.785 30V16.9091H107.305V19.1932H107.441C107.68 18.3807 108.08 17.767 108.643 17.3523C109.205 16.9318 109.853 16.7216 110.586 16.7216C110.768 16.7216 110.964 16.733 111.174 16.7557C111.384 16.7784 111.569 16.8097 111.728 16.8494V20.071C111.558 20.0199 111.322 19.9744 111.021 19.9347C110.719 19.8949 110.444 19.875 110.194 19.875C109.66 19.875 109.183 19.9915 108.762 20.2244C108.347 20.4517 108.018 20.7699 107.773 21.179C107.535 21.5881 107.415 22.0597 107.415 22.5938V30H103.785ZM113.605 34.9091V16.9091H117.185V19.108H117.347C117.506 18.7557 117.736 18.3977 118.037 18.0341C118.344 17.6648 118.741 17.358 119.23 17.1136C119.724 16.8636 120.338 16.7386 121.071 16.7386C122.026 16.7386 122.906 16.9886 123.713 17.4886C124.52 17.983 125.165 18.7301 125.648 19.7301C126.131 20.7244 126.372 21.9716 126.372 23.4716C126.372 24.9318 126.136 26.1648 125.665 27.1705C125.199 28.1705 124.563 28.929 123.756 29.446C122.955 29.9574 122.057 30.2131 121.062 30.2131C120.358 30.2131 119.759 30.0966 119.264 29.8636C118.776 29.6307 118.375 29.3381 118.062 28.9858C117.75 28.6278 117.511 28.267 117.347 27.9034H117.236V34.9091H113.605ZM117.159 23.4545C117.159 24.233 117.267 24.9119 117.483 25.4915C117.699 26.071 118.011 26.5227 118.42 26.8466C118.83 27.1648 119.327 27.3239 119.912 27.3239C120.503 27.3239 121.003 27.1619 121.412 26.8381C121.821 26.5085 122.131 26.054 122.341 25.4744C122.557 24.8892 122.665 24.2159 122.665 23.4545C122.665 22.6989 122.56 22.0341 122.349 21.4602C122.139 20.8864 121.83 20.4375 121.42 20.1136C121.011 19.7898 120.509 19.6278 119.912 19.6278C119.321 19.6278 118.821 19.7841 118.412 20.0966C118.009 20.4091 117.699 20.8523 117.483 21.4261C117.267 22 117.159 22.6761 117.159 23.4545ZM132.423 12.5455V30H128.793V12.5455H132.423ZM139.065 30.2472C138.229 30.2472 137.485 30.1023 136.832 29.8125C136.178 29.517 135.661 29.0824 135.281 28.5085C134.906 27.929 134.718 27.2074 134.718 26.3438C134.718 25.6165 134.852 25.0057 135.119 24.5114C135.386 24.017 135.749 23.6193 136.21 23.3182C136.67 23.017 137.192 22.7898 137.778 22.6364C138.369 22.483 138.988 22.375 139.636 22.3125C140.397 22.233 141.011 22.1591 141.477 22.0909C141.942 22.017 142.281 21.9091 142.491 21.767C142.701 21.625 142.806 21.4148 142.806 21.1364V21.0852C142.806 20.5455 142.636 20.1278 142.295 19.8324C141.96 19.5369 141.482 19.3892 140.863 19.3892C140.21 19.3892 139.69 19.5341 139.303 19.8239C138.917 20.108 138.661 20.4659 138.536 20.8977L135.178 20.625C135.349 19.8295 135.684 19.142 136.184 18.5625C136.684 17.9773 137.329 17.5284 138.119 17.2159C138.914 16.8977 139.835 16.7386 140.88 16.7386C141.607 16.7386 142.303 16.8239 142.968 16.9943C143.638 17.1648 144.232 17.429 144.749 17.7869C145.272 18.1449 145.684 18.6051 145.985 19.1676C146.286 19.7244 146.437 20.392 146.437 21.1705V30H142.994V28.1847H142.891C142.681 28.5938 142.4 28.9545 142.048 29.267C141.695 29.5739 141.272 29.8153 140.778 29.9915C140.283 30.1619 139.712 30.2472 139.065 30.2472ZM140.104 27.7415C140.638 27.7415 141.11 27.6364 141.519 27.4261C141.928 27.2102 142.249 26.9205 142.482 26.5568C142.715 26.1932 142.832 25.7812 142.832 25.321V23.9318C142.718 24.0057 142.562 24.0739 142.363 24.1364C142.17 24.1932 141.951 24.2472 141.707 24.2983C141.462 24.3437 141.218 24.3864 140.974 24.4261C140.729 24.4602 140.508 24.4915 140.309 24.5199C139.883 24.5824 139.511 24.6818 139.192 24.8182C138.874 24.9545 138.627 25.1392 138.451 25.3722C138.275 25.5994 138.187 25.8835 138.187 26.2244C138.187 26.7188 138.366 27.0966 138.724 27.358C139.087 27.6136 139.548 27.7415 140.104 27.7415ZM151.026 34.9091C150.566 34.9091 150.134 34.8722 149.731 34.7983C149.333 34.7301 149.004 34.642 148.742 34.5341L149.56 31.8239C149.987 31.9545 150.37 32.0256 150.711 32.0369C151.058 32.0483 151.356 31.9688 151.606 31.7983C151.862 31.6278 152.069 31.3381 152.228 30.929L152.441 30.375L147.745 16.9091H151.563L154.273 26.5227H154.41L157.146 16.9091H160.989L155.901 31.4148C155.657 32.1193 155.325 32.733 154.904 33.2557C154.489 33.7841 153.964 34.1903 153.327 34.4744C152.691 34.7642 151.924 34.9091 151.026 34.9091Z" fill="#8000FF"/>
<path d="M43.4166 9.60419C42.3526 8.53961 41.0892 7.69512 39.6986 7.11894C38.3081 6.54277 36.8176 6.24622 35.3125 6.24622C33.8073 6.24622 32.3168 6.54277 30.9263 7.11894C29.5358 7.69512 28.2724 8.53961 27.2083 9.60419L25 11.8125L22.7916 9.60419C20.6423 7.45483 17.7271 6.24733 14.6875 6.24733C11.6478 6.24733 8.73266 7.45483 6.5833 9.60419C4.43394 11.7535 3.22644 14.6687 3.22644 17.7084C3.22644 20.748 4.43394 23.6632 6.5833 25.8125L8.79163 28.0209L25 44.2292L41.2083 28.0209L43.4166 25.8125C44.4812 24.7484 45.3257 23.485 45.9019 22.0945C46.478 20.704 46.7746 19.2135 46.7746 17.7084C46.7746 16.2032 46.478 14.7127 45.9019 13.3222C45.3257 11.9317 44.4812 10.6683 43.4166 9.60419Z" stroke="#8000FF" stroke-width="5" stroke-linecap="round" stroke-linejoin="round"/>
</svg>
